<?xml version="1.0" encoding="UTF-8"?>
<svg version="1.1" xmlns="http://www.w3.org/2000/svg" width="500" height="500">
<path d="M0 0 C29.37 0 58.74 0 89 0 C89 3.3 89 6.6 89 10 C89.66 9.67 90.32 9.34 91 9 C92.875 8.8671875 92.875 8.8671875 95 8.875 C96.051875 8.87113281 96.051875 8.87113281 97.125 8.8671875 C99 9 99 9 101 10 C101 36.4 101 62.8 101 90 C97.37 90 93.74 90 90 90 C90.020625 91.629375 90.04125 93.25875 90.0625 94.9375 C90.08386068 96.62499341 90.07205511 98.31391034 90 100 C89 101 89 101 86.71484375 101.09765625 C84.14322917 101.06510417 81.57161458 101.03255208 79 101 C79 104.3 79 107.6 79 111 C56.27188952 111.84248943 33.72310876 112.08322246 11 111 C11 107.7 11 104.4 11 101 C8.5559375 101.0309375 8.5559375 101.0309375 6.0625 101.0625 C4.37500659 101.08386068 2.68608966 101.07205511 1 101 C0 100 0 100 -0.09765625 97.71484375 C-0.08605469 96.79832031 -0.07445312 95.88179688 -0.0625 94.9375 C-0.05347656 94.01839844 -0.04445312 93.09929687 -0.03515625 92.15234375 C-0.02355469 91.44207031 -0.01195312 90.73179687 0 90 C-0.71027344 90.01160156 -1.42054688 90.02320313 -2.15234375 90.03515625 C-3.07144531 90.04417969 -3.99054688 90.05320312 -4.9375 90.0625 C-5.85402344 90.07410156 -6.77054688 90.08570313 -7.71484375 90.09765625 C-10 90 -10 90 -11 89 C-11.09500548 86.53555943 -11.12557985 84.09925374 -11.11352539 81.63452148 C-11.11367142 80.86384338 -11.11381744 80.09316528 -11.1139679 79.2991333 C-11.1132686 76.73975861 -11.10547545 74.1804558 -11.09765625 71.62109375 C-11.09579213 69.85132385 -11.0943682 68.08155344 -11.09336853 66.31178284 C-11.08954288 61.64448634 -11.0797122 56.97722077 -11.06866455 52.30993652 C-11.05845144 47.55102965 -11.05387113 42.79211779 -11.04882812 38.03320312 C-11.03808997 28.68878847 -11.02101299 19.3443968 -11 10 C-3.5 8.875 -3.5 8.875 1 10 C0.67 6.7 0.34 3.4 0 0 Z M2 11 C1.979375 23.519375 1.95875 36.03875 1.9375 48.9375 C1.928396 52.89613037 1.91929199 56.85476074 1.90991211 60.93334961 C1.90656847 64.4699779 1.90656847 64.4699779 1.90455627 68.00660706 C1.90301682 69.58656597 1.89949186 71.16652368 1.89442444 72.74647522 C1.8871462 75.13430841 1.88609261 77.52206956 1.88647461 79.90991211 C1.8828765 80.61830955 1.87927839 81.32670698 1.87557125 82.05657101 C1.60383738 85.30827166 1.60383738 85.30827166 3 88 C5.98889359 88.45765667 8.98969648 88.70320951 12 89 C12.33 92.3 12.66 95.6 13 99 C34.45 99 55.9 99 78 99 C78 95.37 78 91.74 78 88 C81.3 88 84.6 88 88 88 C88 62.59 88 37.18 88 11 C59.62 11 31.24 11 2 11 Z " fill="#D9D8D6" transform="translate(205,90)"/>
<path d="M0 0 C15.51 0 31.02 0 47 0 C47 3.63 47 7.26 47 11 C51.62 11 56.24 11 61 11 C61.02690104 13.79173055 61.04679053 16.58320348 61.0625 19.375 C61.07087891 20.1690625 61.07925781 20.963125 61.08789062 21.78125 C61.11328125 27.7734375 61.11328125 27.7734375 60 30 C57.69 30 55.38 30 53 30 C53 33.63 53 37.26 53 41 C55.64 41 58.28 41 61 41 C61.02888514 44.14581423 61.04675923 47.29159469 61.0625 50.4375 C61.07087891 51.33533203 61.07925781 52.23316406 61.08789062 53.15820312 C61.09111328 54.01220703 61.09433594 54.86621094 61.09765625 55.74609375 C61.10289307 56.53685303 61.10812988 57.3276123 61.11352539 58.14233398 C61 60 61 60 60 61 C58.14712498 61.07226502 56.29166122 61.0838122 54.4375 61.0625 C53.42558594 61.05347656 52.41367188 61.04445313 51.37109375 61.03515625 C50.19740234 61.01775391 50.19740234 61.01775391 49 61 C49 63.97 49 66.94 49 70 C32.83 70 16.66 70 0 70 C0 46.9 0 23.8 0 0 Z M21 18 C21 21.63 21 25.26 21 29 C27.14252407 29.07583363 32.95210034 29.07518216 39 28 C39 24.7 39 21.4 39 18 C33.06 18 27.12 18 21 18 Z M21 44 C21 47.3 21 50.6 21 54 C26.94 54 32.88 54 39 54 C39 50.37 39 46.74 39 43 C32.88514973 42.90293888 27.06696699 43.22959149 21 44 Z " fill="#DCDBD9" transform="translate(166,203)"/>
<path d="M0 0 C1.22244667 0.00333092 1.22244667 0.00333092 2.46958923 0.00672913 C3.39046829 0.00680466 4.31134735 0.00688019 5.26013184 0.00695801 C6.2611644 0.01211929 7.26219696 0.01728058 8.29356384 0.02259827 C9.31316696 0.02401321 10.33277008 0.02542816 11.38327026 0.02688599 C14.65417867 0.03250355 17.92501972 0.04505902 21.19590759 0.05775452 C23.40749515 0.06276725 25.61908377 0.06733055 27.83067322 0.07142639 C33.26494116 0.08247868 38.69916957 0.09923389 44.13340759 0.12025452 C44.13340759 2.76025452 44.13340759 5.40025452 44.13340759 8.12025452 C46.77340759 8.12025452 49.41340759 8.12025452 52.13340759 8.12025452 C52.13340759 16.37025452 52.13340759 24.62025452 52.13340759 33.12025452 C49.49340759 33.12025452 46.85340759 33.12025452 44.13340759 33.12025452 C44.13340759 35.10025452 44.13340759 37.08025452 44.13340759 39.12025452 C46.77340759 39.12025452 49.41340759 39.12025452 52.13340759 39.12025452 C52.32924675 43.26573867 52.51368602 47.41165122 52.69590759 51.55775452 C52.78001892 53.33376038 52.78001892 53.33376038 52.86582947 55.14564514 C52.91416931 56.27035217 52.96250916 57.3950592 53.01231384 58.55384827 C53.05944519 59.59597473 53.10657654 60.6381012 53.15513611 61.71180725 C53.13340759 64.12025452 53.13340759 64.12025452 52.13340759 65.12025452 C49.46281908 65.26140613 46.80908522 65.16272559 44.13340759 65.12025452 C44.13340759 68.09025452 44.13340759 71.06025452 44.13340759 74.12025452 C28.62340759 74.12025452 13.11340759 74.12025452 -2.86659241 74.12025452 C-2.90670122 55.94205082 -2.90670122 55.94205082 -2.91542053 48.21986389 C-2.92140865 42.94145203 -2.92850813 37.66305744 -2.94203186 32.38465881 C-2.95286185 28.13124336 -2.95886948 23.87784643 -2.96146965 19.62441826 C-2.9633237 17.99803819 -2.96694393 16.37165918 -2.97232246 14.74528694 C-2.97953439 12.47515259 -2.98058329 10.20509567 -2.9801178 7.93495178 C-2.98233841 6.64033524 -2.98455902 5.34571869 -2.98684692 4.01187134 C-2.82757984 0.18216577 -2.82757984 0.18216577 0 0 Z M17.13340759 18.12025452 C17.13340759 22.08025452 17.13340759 26.04025452 17.13340759 30.12025452 C23.07340759 30.12025452 29.01340759 30.12025452 35.13340759 30.12025452 C35.13340759 26.16025452 35.13340759 22.20025452 35.13340759 18.12025452 C29.19340759 18.12025452 23.25340759 18.12025452 17.13340759 18.12025452 Z M17.13340759 45.12025452 C15.72227542 49.74196658 15.72227542 49.74196658 17.13340759 57.12025452 C23.07340759 57.12025452 29.01340759 57.12025452 35.13340759 57.12025452 C35.13340759 53.16025452 35.13340759 49.20025452 35.13340759 45.12025452 C29.19340759 45.12025452 23.25340759 45.12025452 17.13340759 45.12025452 Z " fill="#E0DFDC" transform="translate(56.86659240722656,278.87974548339844)"/>
<path d="M0 0 C12.54 0 25.08 0 38 0 C38 2.97 38 5.94 38 9 C40.31 9 42.62 9 45 9 C45 30.45 45 51.9 45 74 C39.39 74 33.78 74 28 74 C27 73 27 73 26.90234375 69.40234375 C26.9090178 67.91403133 26.92097817 66.42573568 26.9375 64.9375 C26.94201172 64.17888672 26.94652344 63.42027344 26.95117188 62.63867188 C26.9629932 60.75908129 26.98092922 58.87953101 27 57 C22.05 57 17.1 57 12 57 C12 62.61 12 68.22 12 74 C5.73 74 -0.54 74 -7 74 C-8.08457182 70.74628455 -8.12046857 68.3910068 -8.11352539 64.96801758 C-8.11344986 63.72695755 -8.11337433 62.48589752 -8.11329651 61.20722961 C-8.10818991 59.85299642 -8.10297391 58.49876363 -8.09765625 57.14453125 C-8.09579083 55.75876415 -8.09436751 54.37299639 -8.09336853 52.98722839 C-8.0895531 49.3425209 -8.07973113 45.69785335 -8.06866455 42.05316162 C-8.0584295 38.33297262 -8.05386642 34.61277715 -8.04882812 30.89257812 C-8.03810798 23.59503389 -8.02104325 16.29752254 -8 9 C-4.71023192 7.90341064 -3.28696233 8.20046862 0 9 C0 6.03 0 3.06 0 0 Z M12 18 C12 25.26 12 32.52 12 40 C16.95 40 21.9 40 27 40 C27 32.41 27 24.82 27 17 C22.03318209 17 16.93819146 17.64409431 12 18 Z " fill="#E1E0DE" transform="translate(127,279)"/>
<path d="M0 0 C11.88 0 23.76 0 36 0 C36 2.64 36 5.28 36 8 C38.31 8 40.62 8 43 8 C43 13.28 43 18.56 43 24 C37.72 24 32.44 24 27 24 C26 22 26 22 27 17 C21.72 17.33 16.44 17.66 11 18 C10.67 21.63 10.34 25.26 10 29 C17.92 29 25.84 29 34 29 C34 31.97 34 34.94 34 38 C36.97 38 39.94 38 43 38 C43 46.91 43 55.82 43 65 C40.69 65 38.38 65 36 65 C36 67.97 36 70.94 36 74 C24.12 74 12.24 74 0 74 C0 71.03 0 68.06 0 65 C-2.97 65 -5.94 65 -9 65 C-9.02685938 62.85423363 -9.04633088 60.70837355 -9.0625 58.5625 C-9.07410156 57.36753906 -9.08570313 56.17257812 -9.09765625 54.94140625 C-9 52 -9 52 -8 51 C-6.65732587 50.91368126 -5.31025678 50.89293527 -3.96484375 50.90234375 C-3.15595703 50.90556641 -2.34707031 50.90878906 -1.51367188 50.91210938 C-0.66353516 50.92048828 0.18660156 50.92886719 1.0625 50.9375 C1.91650391 50.94201172 2.77050781 50.94652344 3.65039062 50.95117188 C5.76695663 50.96299627 7.88348685 50.98093231 10 51 C10 52.98 10 54.96 10 57 C15.28 57 20.56 57 26 57 C25.505 53.535 25.505 53.535 25 50 C25 48.35 25 46.7 25 45 C16.75 45 8.5 45 0 45 C0 41.7 0 38.4 0 35 C-2.97 35 -5.94 35 -9 35 C-9.02886537 30.68751391 -9.04675255 26.37505238 -9.0625 22.0625 C-9.07087891 20.83080078 -9.07925781 19.59910156 -9.08789062 18.33007812 C-9.09111328 17.16025391 -9.09433594 15.99042969 -9.09765625 14.78515625 C-9.10289307 13.70113525 -9.10812988 12.61711426 -9.11352539 11.50024414 C-9 9 -9 9 -8 8 C-5.32941149 7.85884839 -2.67567762 7.95752893 0 8 C0 5.36 0 2.72 0 0 Z " fill="#DFDEDC" transform="translate(403,279)"/>
<path d="M0 0 C10.8590625 -0.0309375 10.8590625 -0.0309375 21.9375 -0.0625 C24.22550537 -0.071604 26.51351074 -0.08070801 28.87084961 -0.09008789 C30.67301372 -0.09300695 32.4751785 -0.09555553 34.27734375 -0.09765625 C35.22226685 -0.10277222 36.16718994 -0.10788818 37.14074707 -0.11315918 C38.48054626 -0.11334045 38.48054626 -0.11334045 39.84741211 -0.11352539 C40.62684677 -0.115746 41.40628143 -0.11796661 42.20933533 -0.12025452 C44 0 44 0 45 1 C45.07325436 3.6986905 45.09222351 6.36502556 45.0625 9.0625 C45.041875 11.681875 45.02125 14.30125 45 17 C36.42 17 27.84 17 19 17 C19 20.96 19 24.92 19 29 C25.93 29 32.86 29 40 29 C40 34.28 40 39.56 40 45 C33.07 45 26.14 45 19 45 C19 48.96 19 52.92 19 57 C27.91 57 36.82 57 46 57 C45.67 62.61 45.34 68.22 45 74 C30.15 74 15.3 74 0 74 C0 49.58 0 25.16 0 0 Z " fill="#DBDAD7" transform="translate(342,279)"/>
<path d="M0 0 C20.46 0 40.92 0 62 0 C62 5.94 62 11.88 62 18 C55.4 18 48.8 18 42 18 C42 35.16 42 52.32 42 70 C34.74 70 27.48 70 20 70 C20 52.84 20 35.68 20 18 C13.4 18 6.8 18 0 18 C0 12.06 0 6.12 0 0 Z " fill="#D6D5D3" transform="translate(272,203)"/>
<path d="M0 0 C16.5 0 33 0 50 0 C50 5.94 50 11.88 50 18 C45.38 18 40.76 18 36 18 C35.67 36.48 35.34 54.96 35 74 C28.73 74 22.46 74 16 74 C16 55.19 16 36.38 16 17 C10.72 17 5.44 17 0 17 C0 11.39 0 5.78 0 0 Z " fill="#E0DFDD" transform="translate(176,279)"/>
<path d="M0 0 C16.83 0 33.66 0 51 0 C51.495 8.415 51.495 8.415 52 17 C51.505 17.495 51.505 17.495 51 18 C45.72 18 40.44 18 35 18 C35 36.48 35 54.96 35 74 C29.06 74 23.12 74 17 74 C17 55.52 17 37.04 17 18 C11.72 18 6.44 18 1 18 C0.67 17.67 0.34 17.34 0 17 C0 11.39 0 5.78 0 0 Z " fill="#E2E1DF" transform="translate(232,279)"/>
<path d="M0 0 C6.27 0 12.54 0 19 0 C19 18.81 19 37.62 19 57 C27.58 56.67 36.16 56.34 45 56 C49.24918293 60.24918293 46 67.99074787 46 74 C31.15 74 16.3 74 1 74 C-0.16799214 49.326166 -0.09303816 24.69646327 0 0 Z " fill="#E5E4E2" transform="translate(289,279)"/>
<path d="M0 0 C0 7.26 0 14.52 0 22 C6.20792914 21.96041973 6.20792914 21.96041973 12.41577148 21.90991211 C13.18477783 21.90741455 13.95378418 21.90491699 14.74609375 21.90234375 C15.53685303 21.89710693 16.3276123 21.89187012 17.14233398 21.88647461 C19 22 19 22 20 23 C20.07330331 25.86469325 20.09217831 28.69893674 20.0625 31.5625 C20.041875 34.346875 20.02125 37.13125 20 40 C13.4 40 6.8 40 0 40 C0 46.6 0 53.2 0 60 C-5.94 60 -11.88 60 -18 60 C-18 53.4 -18 46.8 -18 40 C-24.6 40 -31.2 40 -38 40 C-38.33 34.06 -38.66 28.12 -39 22 C-32.07 22 -25.14 22 -18 22 C-18 14.74 -18 7.48 -18 0 C-11.53704592 -1.07715901 -6.41061606 -1.60265402 0 0 Z " fill="#DBDAD7" transform="translate(259,112)"/>
<path d="M0 0 C6.93 0 13.86 0 21 0 C22.84797201 1.84797201 22.12775947 4.86796077 22.12939453 7.33984375 C22.13114685 8.00162628 22.13289917 8.66340881 22.13470459 9.34524536 C22.13912217 11.5426899 22.13618547 13.74005458 22.1328125 15.9375 C22.13348557 17.45825211 22.13445561 18.97900412 22.13571167 20.49975586 C22.13718851 23.69092836 22.13503452 26.88207292 22.13037109 30.07324219 C22.1246738 34.1726453 22.12795288 38.27198296 22.13394356 42.37138367 C22.13754954 45.51282244 22.13641042 48.65424558 22.13381577 51.79568481 C22.1331466 53.30762744 22.13397457 54.81957146 22.13629532 56.33151245 C22.13882245 58.44109887 22.13498044 60.55057787 22.12939453 62.66015625 C22.12859894 63.86293213 22.12780334 65.06570801 22.12698364 66.30493164 C22 69 22 69 21 70 C14.07 70 7.14 70 0 70 C0 46.9 0 23.8 0 0 Z " fill="#D8D7D5" transform="translate(240,203)"/>
<path d="M0 0 C29.37 0 58.74 0 89 0 C89 3.3 89 6.6 89 10 C89.66 9.67 90.32 9.34 91 9 C92.875 8.8671875 92.875 8.8671875 95 8.875 C96.051875 8.87113281 96.051875 8.87113281 97.125 8.8671875 C99 9 99 9 101 10 C101 36.4 101 62.8 101 90 C97.37 90 93.74 90 90 90 C90 93.3 90 96.6 90 100 C89.67 100 89.34 100 89 100 C88.11740628 89.09382865 87.8649574 78.28457994 87.90234375 67.34765625 C87.90421486 65.70999699 87.90563548 64.07233715 87.90663147 62.43467712 C87.91040219 58.17858259 87.92018415 53.92252361 87.93133545 49.66644287 C87.94166845 45.30172201 87.94615424 40.93699526 87.95117188 36.57226562 C87.96181281 28.04816099 87.97882149 19.52408495 88 11 C87.01 10.505 87.01 10.505 86 10 C86.66 10 87.32 10 88 10 C88 7.03 88 4.06 88 1 C59.29 1 30.58 1 1 1 C1 2.65 1 4.3 1 6 C0.67 6 0.34 6 0 6 C0 4.02 0 2.04 0 0 Z " fill="#CBCAC8" transform="translate(205,90)"/>
<path d="M0 0 C0.33 0 0.66 0 1 0 C1 5.28 1 10.56 1 16 C-2.3 16 -5.6 16 -9 16 C-9 19.3 -9 22.6 -9 26 C-31.72811048 26.84248943 -54.27689124 27.08322246 -77 26 C-77 22.7 -77 19.4 -77 16 C-80.3 16 -83.6 16 -87 16 C-87 15.01 -87 14.02 -87 13 C-83.7 13.33 -80.4 13.66 -77 14 C-77 11.69 -77 9.38 -77 7 C-76.67 7 -76.34 7 -76 7 C-76 9.31 -76 11.62 -76 14 C-54.22 14 -32.44 14 -10 14 C-10 10.37 -10 6.74 -10 3 C-3.375 1.875 -3.375 1.875 0 3 C0 2.01 0 1.02 0 0 Z " fill="#D1D1CF" transform="translate(293,175)"/>
<path d="M0 0 C28.71 0 57.42 0 87 0 C87 2.97 87 5.94 87 9 C83.86002332 10.56998834 80.50823639 10.12944545 77.06201172 10.11352539 C76.24241974 10.11367142 75.42282776 10.11381744 74.57839966 10.1139679 C71.8621356 10.11326974 69.14593962 10.10548188 66.4296875 10.09765625 C64.54924558 10.09579173 62.66880317 10.09436798 60.7883606 10.09336853 C55.83338078 10.08954607 50.87843017 10.07971808 45.92346191 10.06866455 C40.86955155 10.05844461 35.81563647 10.05386966 30.76171875 10.04882812 C20.84113299 10.03809559 10.92056892 10.0210224 1 10 C0.67 10.66 0.34 11.32 0 12 C-1 9 -1 9 0 0 Z " fill="#EAE9E7" transform="translate(206,91)"/>
<path d="M0 0 C2.31 0 4.62 0 7 0 C7.33 3.3 7.66 6.6 8 10 C11.3 10 14.6 10 18 10 C18 13.3 18 16.6 18 20 C19.11823815 17.76352369 19.19396061 16.35108471 19.31640625 13.8671875 C19.35830078 13.06152344 19.40019531 12.25585938 19.44335938 11.42578125 C19.48267578 10.58402344 19.52199219 9.74226563 19.5625 8.875 C19.60568359 8.02550781 19.64886719 7.17601562 19.69335938 6.30078125 C19.79954236 4.20071777 19.90028497 2.10038052 20 0 C22.64 0 25.28 0 28 0 C28 7.26 28 14.52 28 22 C27.01 22.33 26.02 22.66 25 23 C25 24.32 25 25.64 25 27 C21.7 27 18.4 27 15 27 C15 25.68 15 24.36 15 23 C14.01 23 13.02 23 12 23 C12 24.32 12 25.64 12 27 C8.7 27 5.4 27 2 27 C2 25.68 2 24.36 2 23 C1.34 23 0.68 23 0 23 C0 15.41 0 7.82 0 0 Z M9 11 C9 11.66 9 12.32 9 13 C8.34 13 7.68 13 7 13 C7 14.65 7 16.3 7 18 C7.99 18 8.98 18 10 18 C10 15.69 10 13.38 10 11 C9.67 11 9.34 11 9 11 Z " fill="#CECECC" transform="translate(225,371)"/>
<path d="M0 0 C2.31 0 4.62 0 7 0 C9.70448323 3.12055757 11 4.83274304 11 9 C11.66 9 12.32 9 13 9 C12.979375 7.700625 12.95875 6.40125 12.9375 5.0625 C12.91600546 3.70834367 12.92851801 2.35243917 13 1 C13.33 0.67 13.66 0.34 14 0 C16.64 0 19.28 0 22 0 C21.67 8.91 21.34 17.82 21 27 C18.69 27 16.38 27 14 27 C14 25.02 14 23.04 14 21 C12.35 21 10.7 21 9 21 C8.67 22.98 8.34 24.96 8 27 C5.36 27 2.72 27 0 27 C0 18.09 0 9.18 0 0 Z " fill="#C1C1BF" transform="translate(187,371)"/>
<path d="M0 0 C2.64 0 5.28 0 8 0 C8 3.3 8 6.6 8 10 C9.98 10 11.96 10 14 10 C13.91621094 9.36191406 13.83242188 8.72382813 13.74609375 8.06640625 C13.64425781 7.24011719 13.54242188 6.41382813 13.4375 5.5625 C13.33308594 4.73878906 13.22867187 3.91507812 13.12109375 3.06640625 C13.08113281 2.38449219 13.04117187 1.70257813 13 1 C13.33 0.67 13.66 0.34 14 0 C16.64 0 19.28 0 22 0 C22 8.91 22 17.82 22 27 C19.36 27 16.72 27 14 27 C14 24.03 14 21.06 14 18 C12.02 18 10.04 18 8 18 C8 20.97 8 23.94 8 27 C5.36 27 2.72 27 0 27 C0 18.09 0 9.18 0 0 Z " fill="#B3B3B1" transform="translate(293,371)"/>
<path d="M0 0 C3.63 0 7.26 0 11 0 C11.33 0.99 11.66 1.98 12 3 C12.99 3.33 13.98 3.66 15 4 C15 5.98 15 7.96 15 10 C14.01 10 13.02 10 12 10 C12.33 11.32 12.66 12.64 13 14 C13.66 14 14.32 14 15 14 C15 16.97 15 19.94 15 23 C14.01 23.33 13.02 23.66 12 24 C11.67 24.99 11.34 25.98 11 27 C9.06318839 27.08107583 7.1254066 27.13922475 5.1875 27.1875 C4.10855469 27.22230469 3.02960938 27.25710938 1.91796875 27.29296875 C-1 27 -1 27 -2.8359375 25.640625 C-4.41811532 23.41070995 -4.80093537 21.72054996 -5 19 C-4.649375 18.34 -4.29875 17.68 -3.9375 17 C-3.628125 16.34 -3.31875 15.68 -3 15 C-3.6590841 13.33032028 -4.32650839 11.66392045 -5 10 C-4.625 6.6875 -4.625 6.6875 -4 4 C-3.34 4 -2.68 4 -2 4 C-1.34 2.68 -0.68 1.36 0 0 Z " fill="#E9E9E8" transform="translate(360,371)"/>
<path d="M0 0 C4.29 0 8.58 0 13 0 C13.33 1.32 13.66 2.64 14 4 C14.99 4 15.98 4 17 4 C17 10.27 17 16.54 17 23 C16.34 23.33 15.68 23.66 15 24 C14.67 24.99 14.34 25.98 14 27 C9.38 27 4.76 27 0 27 C-0.33 25.68 -0.66 24.36 -1 23 C-1.99 23 -2.98 23 -4 23 C-4 16.73 -4 10.46 -4 4 C-3.01 4 -2.02 4 -1 4 C-0.67 2.68 -0.34 1.36 0 0 Z M3 8 C3 11.96 3 15.92 3 20 C4.98 20 6.96 20 9 20 C9 16.04 9 12.08 9 8 C7.02 8 5.04 8 3 8 Z " fill="#C7C7C6" transform="translate(153,371)"/>
<path d="M0 0 C2.31 0 4.62 0 7 0 C8 1 8 1 8.11352539 2.85766602 C8.10828857 3.64842529 8.10305176 4.43918457 8.09765625 5.25390625 C8.09443359 6.10791016 8.09121094 6.96191406 8.08789062 7.84179688 C8.07951172 8.73962891 8.07113281 9.63746094 8.0625 10.5625 C8.05798828 11.46419922 8.05347656 12.36589844 8.04882812 13.29492188 C8.03700225 15.53001314 8.0205222 17.76497437 8 20 C9.98 20 11.96 20 14 20 C14 13.4 14 6.8 14 0 C16.64 0 19.28 0 22 0 C22 7.92 22 15.84 22 24 C20.68 24 19.36 24 18 24 C18 24.99 18 25.98 18 27 C13.05 27 8.1 27 3 27 C3.33 25.68 3.66 24.36 4 23 C2.68 23 1.36 23 0 23 C0 15.41 0 7.82 0 0 Z " fill="#EFEEEC" transform="translate(329,371)"/>
<path d="M0 0 C2.64 0 5.28 0 8 0 C8 7.92 8 15.84 8 24 C6.68 24 5.36 24 4 24 C4 24.99 4 25.98 4 27 C0.37 27 -3.26 27 -7 27 C-7 25.68 -7 24.36 -7 23 C-8.65 23 -10.3 23 -12 23 C-12 20.69 -12 18.38 -12 16 C-6.04296875 15.70703125 -6.04296875 15.70703125 -4 16 C-2.37231445 17.51831055 -2.37231445 17.51831055 -1 19 C-1.01160156 17.71222656 -1.02320313 16.42445313 -1.03515625 15.09765625 C-1.0445327 13.41927228 -1.05363305 11.74088674 -1.0625 10.0625 C-1.07087891 9.21236328 -1.07925781 8.36222656 -1.08789062 7.48632812 C-1.09111328 6.67744141 -1.09433594 5.86855469 -1.09765625 5.03515625 C-1.10289307 4.2862915 -1.10812988 3.53742676 -1.11352539 2.76586914 C-1 1 -1 1 0 0 Z " fill="#C9C9C7" transform="translate(135,371)"/>
<path d="M0 0 C3.12492251 -0.05791844 6.24970766 -0.09356746 9.375 -0.125 C10.26445312 -0.14175781 11.15390625 -0.15851563 12.0703125 -0.17578125 C12.92109375 -0.18222656 13.771875 -0.18867188 14.6484375 -0.1953125 C15.82672119 -0.21102295 15.82672119 -0.21102295 17.02880859 -0.22705078 C19 0 19 0 21 2 C20.34 3.98 19.68 5.96 19 8 C17.02 8 15.04 8 13 8 C13 14.27 13 20.54 13 27 C10.69 27 8.38 27 6 27 C6 20.73 6 14.46 6 8 C4.02 8 2.04 8 0 8 C0 5.36 0 2.72 0 0 Z " fill="#B9B8B6" transform="translate(270,371)"/>
<path d="M0 0 C1.65 0 3.3 0 5 0 C5 6.27 5 12.54 5 19 C6.32 19 7.64 19 9 19 C9 16.03 9 13.06 9 10 C11.31 10 13.62 10 16 10 C16 13.3 16 16.6 16 20 C19.63619656 21.08084521 19.63619656 21.08084521 22 21 C22.66 22.65 23.32 24.3 24 26 C20.7 26 17.4 26 14 26 C14 24.68 14 23.36 14 22 C13.01 22 12.02 22 11 22 C11 22.99 11 23.98 11 25 C8.03 25 5.06 25 2 25 C2 23.68 2 22.36 2 21 C1.34 21 0.68 21 0 21 C0 14.07 0 7.14 0 0 Z " fill="#EDEDEB" transform="translate(226,372)"/>
<path d="M0 0 C2.64 0 5.28 0 8 0 C8 8.91 8 17.82 8 27 C4.29847322 27.92538169 3.36541838 28.08174162 0 27 C-0.19582583 22.68783519 -0.38027074 18.3752591 -0.5625 14.0625 C-0.61857422 12.83080078 -0.67464844 11.59910156 -0.73242188 10.33007812 C-0.78076172 9.16025391 -0.82910156 7.99042969 -0.87890625 6.78515625 C-0.9260376 5.70113525 -0.97316895 4.61711426 -1.02172852 3.50024414 C-1 1 -1 1 0 0 Z " fill="#BBBBBA" transform="translate(257,371)"/>
<path d="M0 0 C0.33 0.99 0.66 1.98 1 3 C2.32 3 3.64 3 5 3 C5.05401695 5.91691525 5.09368066 8.83282724 5.125 11.75 C5.15013672 12.9875 5.15013672 12.9875 5.17578125 14.25 C5.18222656 15.04921875 5.18867188 15.8484375 5.1953125 16.671875 C5.20578613 17.4050293 5.21625977 18.13818359 5.22705078 18.89355469 C5 21 5 21 3 25 C-1.62 25 -6.24 25 -11 25 C-12.07421875 17.48046875 -12.07421875 17.48046875 -12 15 C-10.51953125 13.17578125 -10.51953125 13.17578125 -9 12 C-9 13.98 -9 15.96 -9 18 C-6.36 18 -3.72 18 -1 18 C-1.01160156 16.95199219 -1.02320313 15.90398437 -1.03515625 14.82421875 C-1.04453655 13.44531428 -1.0536365 12.06640789 -1.0625 10.6875 C-1.07087891 9.99720703 -1.07925781 9.30691406 -1.08789062 8.59570312 C-1.10307906 5.4516975 -1.00193327 3.00579981 0 0 Z " fill="#E4E4E3" transform="translate(164,373)"/>
<path d="M0 0 C1.98 0 3.96 0 6 0 C6 8.58 6 17.16 6 26 C3.69 26 1.38 26 -1 26 C-1 24.02 -1 22.04 -1 20 C-2.65 20 -4.3 20 -6 20 C-6.33 18.02 -6.66 16.04 -7 14 C-6.34 14 -5.68 14 -5 14 C-4.34 14.66 -3.68 15.32 -3 16 C-3 14.68 -3 13.36 -3 12 C-2.01 12 -1.02 12 0 12 C0 8.04 0 4.08 0 0 Z " fill="#E0E0DE" transform="translate(202,372)"/>
<path d="M0 0 C0 8.91 0 17.82 0 27 C-2.31 27 -4.62 27 -7 27 C-7.02505615 26.28344238 -7.0501123 25.56688477 -7.07592773 24.82861328 C-7.19169751 21.59388486 -7.31450969 18.35946159 -7.4375 15.125 C-7.47681641 13.99707031 -7.51613281 12.86914062 -7.55664062 11.70703125 C-7.59853516 10.63066406 -7.64042969 9.55429687 -7.68359375 8.4453125 C-7.72025146 7.45031738 -7.75690918 6.45532227 -7.79467773 5.43017578 C-7.84959532 2.99220499 -7.84959532 2.99220499 -9 1 C-7 0 -7 0 0 0 Z " fill="#D5D4D2" transform="translate(182,371)"/>
<path d="M0 0 C0.74886475 0.00523682 1.49772949 0.01047363 2.26928711 0.01586914 C3.07817383 0.0190918 3.88706055 0.02231445 4.72045898 0.02563477 C5.5705957 0.03401367 6.42073242 0.04239258 7.29663086 0.05102539 C8.15063477 0.05553711 9.00463867 0.06004883 9.88452148 0.06469727 C12.00108749 0.07652166 14.11761771 0.0944577 16.23413086 0.11352539 C16.23413086 2.09352539 16.23413086 4.07352539 16.23413086 6.11352539 C21.51413086 6.11352539 26.79413086 6.11352539 32.23413086 6.11352539 C32.23413086 6.44352539 32.23413086 6.77352539 32.23413086 7.11352539 C26.62413086 7.11352539 21.01413086 7.11352539 15.23413086 7.11352539 C15.23413086 5.13352539 15.23413086 3.15352539 15.23413086 1.11352539 C15.11038086 1.89727539 14.98663086 2.68102539 14.85913086 3.48852539 C14.23413086 6.11352539 14.23413086 6.11352539 12.23413086 8.11352539 C12.23413086 7.45352539 12.23413086 6.79352539 12.23413086 6.11352539 C10.00673385 7.17554276 10.00673385 7.17554276 7.23413086 9.11352539 C6.24413086 9.11352539 5.25413086 9.11352539 4.23413086 9.11352539 C4.23413086 10.10352539 4.23413086 11.09352539 4.23413086 12.11352539 C4.89413086 12.77352539 5.55413086 13.43352539 6.23413086 14.11352539 C3.26413086 14.11352539 0.29413086 14.11352539 -2.76586914 14.11352539 C-2.79272852 11.96775903 -2.81220002 9.82189894 -2.82836914 7.67602539 C-2.8399707 6.48106445 -2.85157227 5.28610352 -2.86352539 4.05493164 C-2.73473658 0.1758126 -2.73473658 0.1758126 0 0 Z " fill="#B5B4B2" transform="translate(396.765869140625,329.886474609375)"/>
<path d="M0 0 C2.31 0 4.62 0 7 0 C7 21.45 7 42.9 7 65 C1.39 65 -4.22 65 -10 65 C-11 64 -11 64 -11.09765625 60.40234375 C-11.0909822 58.91403133 -11.07902183 57.42573568 -11.0625 55.9375 C-11.05798828 55.17888672 -11.05347656 54.42027344 -11.04882812 53.63867188 C-11.0370068 51.75908129 -11.01907078 49.87953101 -11 48 C-15.95 48 -20.9 48 -26 48 C-26 53.61 -26 59.22 -26 65 C-32.27 65 -38.54 65 -45 65 C-46.04976964 61.85069107 -46.10131595 59.61185544 -46.0625 56.3125 C-46.05347656 55.31863281 -46.04445313 54.32476562 -46.03515625 53.30078125 C-46.02355469 52.54152344 -46.01195313 51.78226562 -46 51 C-45.01 50.505 -45.01 50.505 -44 50 C-43.80543295 51.95764383 -43.61955753 53.91615321 -43.4375 55.875 C-43.33308594 56.96554687 -43.22867188 58.05609375 -43.12109375 59.1796875 C-43 62 -43 62 -44 64 C-38.39 64 -32.78 64 -27 64 C-27 58.39 -27 52.78 -27 47 C-21.39 47 -15.78 47 -10 47 C-9.505 55.415 -9.505 55.415 -9 64 C-4.05 64 0.9 64 6 64 C6 43.21 6 22.42 6 1 C4.02 1 2.04 1 0 1 C0 0.67 0 0.34 0 0 Z " fill="#D0D0CF" transform="translate(165,288)"/>
<path d="M0 0 C1.9375 0.375 1.9375 0.375 4 1 C5.42846473 3.85692945 5.12728819 6.28811165 5.12939453 9.48168945 C5.13114685 10.14694641 5.13289917 10.81220337 5.13470459 11.49761963 C5.13911531 13.70286651 5.13618686 15.90803351 5.1328125 18.11328125 C5.133486 19.64544185 5.13445642 21.17760234 5.13571167 22.70976257 C5.13718778 25.92525243 5.13503775 29.14071454 5.13037109 32.35620117 C5.12468826 36.47199635 5.12794416 40.58772612 5.13394356 44.70351887 C5.13756381 47.86999501 5.1364036 51.03645575 5.13381577 54.20293236 C5.1331498 55.71994217 5.13396336 57.2369534 5.13629532 58.75396156 C5.13884425 60.87938743 5.13494909 63.00470883 5.12939453 65.13012695 C5.12859894 66.33876907 5.12780334 67.54741119 5.12698364 68.79267883 C5.01363761 71.65554474 4.66066558 74.21902786 4 77 C3.67 77 3.34 77 3 77 C2.67 52.58 2.34 28.16 2 3 C1.34 2.67 0.68 2.34 0 2 C0 1.34 0 0.68 0 0 Z " fill="#BCBCBB" transform="translate(202,100)"/>
<path d="M0 0 C1.98 0 3.96 0 6 0 C6 7.26 6 14.52 6 22 C4.68 22 3.36 22 2 22 C2 21.34 2 20.68 2 20 C1.34 20 0.68 20 0 20 C0 13.4 0 6.8 0 0 Z " fill="#EEEEEC" transform="translate(344,372)"/>
<path d="M0 0 C0.33 0 0.66 0 1 0 C1 4.95 1 9.9 1 15 C-2.3 15 -5.6 15 -9 15 C-9 11.37 -9 7.74 -9 4 C-3.375 1.875 -3.375 1.875 0 3 C0 2.01 0 1.02 0 0 Z " fill="#E6E6E4" transform="translate(293,175)"/>
<path d="M0 0 C2.64 0 5.28 0 8 0 C8 7.92 8 15.84 8 24 C6.68 24 5.36 24 4 24 C4 24.66 4 25.32 4 26 C-0.54805635 26.17835515 -3.8794254 25.99785435 -8 24 C-7.505 19.545 -7.505 19.545 -7 15 C-6.67 15 -6.34 15 -6 15 C-6 16.65 -6 18.3 -6 20 C-4.02 20 -2.04 20 0 20 C0 13.4 0 6.8 0 0 Z M1 1 C1 7.6 1 14.2 1 21 C1.66 21 2.32 21 3 21 C3 21.66 3 22.32 3 23 C4.32 23 5.64 23 7 23 C7 15.74 7 8.48 7 1 C5.02 1 3.04 1 1 1 Z " fill="#989896" transform="translate(343,371)"/>
<path d="M0 0 C3.63 0 7.26 0 11 0 C11.33 0.99 11.66 1.98 12 3 C12.99 3.33 13.98 3.66 15 4 C15 5.98 15 7.96 15 10 C9.2287637 10 5.12835868 9.90606992 0 7 C-1 5 -1 5 0 0 Z " fill="#EAEAE8" transform="translate(360,371)"/>
<path d="M0 0 C0.66 0.33 1.32 0.66 2 1 C1.67 7.6 1.34 14.2 1 21 C-0.98 21 -2.96 21 -5 21 C-5 15.39 -5 9.78 -5 4 C-4.01 3.67 -3.02 3.34 -2 3 C-1.67 2.34 -1.34 1.68 -1 1 C-0.67 0.67 -0.34 0.34 0 0 Z " fill="#E7E8E4" transform="translate(281,377)"/>
<path d="M0 0 C0 3.3 0 6.6 0 10 C-1.60875 10.020625 -3.2175 10.04125 -4.875 10.0625 C-6.23238281 10.07990234 -6.23238281 10.07990234 -7.6171875 10.09765625 C-10 10 -10 10 -12 9 C-12 6.36 -12 3.72 -12 1 C-4.5 -1.125 -4.5 -1.125 0 0 Z " fill="#E9E8E5" transform="translate(218,179)"/>
<path d="M0 0 C4.29 0 8.58 0 13 0 C13.33 1.32 13.66 2.64 14 4 C14.99 4 15.98 4 17 4 C17 10.27 17 16.54 17 23 C16.67 23 16.34 23 16 23 C16 17.06 16 11.12 16 5 C14.35 5 12.7 5 11 5 C10.67 9.95 10.34 14.9 10 20 C9.67 20 9.34 20 9 20 C9 16.04 9 12.08 9 8 C7.02 8 5.04 8 3 8 C3.25 6.125 3.25 6.125 4 4 C6.0625 2.75 6.0625 2.75 8 2 C5.36 1.67 2.72 1.34 0 1 C0 0.67 0 0.34 0 0 Z " fill="#838383" transform="translate(153,371)"/>
<path d="M0 0 C2.31 0 4.62 0 7 0 C7.33 3.3 7.66 6.6 8 10 C11.3 10 14.6 10 18 10 C18 13.3 18 16.6 18 20 C17.67 20 17.34 20 17 20 C17 17.03 17 14.06 17 11 C14.36 11 11.72 11 9 11 C9 11.66 9 12.32 9 13 C8.34 13 7.68 13 7 13 C7 14.65 7 16.3 7 18 C7.99 18.33 8.98 18.66 10 19 C8.68 19.33 7.36 19.66 6 20 C6 13.73 6 7.46 6 1 C4.35 1 2.7 1 1 1 C1 7.93 1 14.86 1 22 C1.66 22 2.32 22 3 22 C3 23.32 3 24.64 3 26 C5.97 26 8.94 26 12 26 C12 26.33 12 26.66 12 27 C8.7 27 5.4 27 2 27 C2 25.68 2 24.36 2 23 C1.34 23 0.68 23 0 23 C0 15.41 0 7.82 0 0 Z " fill="#8E8E8C" transform="translate(225,371)"/>
<path d="M0 0 C0.99 0.66 1.98 1.32 3 2 C3.51171875 5.0390625 3.51171875 5.0390625 3.6875 8.625 C3.75324219 9.81351562 3.81898438 11.00203125 3.88671875 12.2265625 C3.92410156 13.14179688 3.96148437 14.05703125 4 15 C7.63 15.66 11.26 16.32 15 17 C15 17.33 15 17.66 15 18 C10.05 18 5.1 18 0 18 C0.33 16.68 0.66 15.36 1 14 C-0.32 14 -1.64 14 -3 14 C-3 10.04 -3 6.08 -3 2 C-2.67 2 -2.34 2 -2 2 C-2 5.63 -2 9.26 -2 13 C-0.74552282 11.97448273 -0.74552282 11.97448273 -0.9375 9.78515625 C-0.97910692 7.97265488 -1.02077341 6.16015487 -1.0625 4.34765625 C-1 2 -1 2 0 0 Z " fill="#D6D5D3" transform="translate(332,380)"/>
<path d="M0 0 C5.61 0 11.22 0 17 0 C17 4.29 17 8.58 17 13 C16.67 13 16.34 13 16 13 C16 9.04 16 5.08 16 1 C11.05 1 6.1 1 1 1 C1 6.61 1 12.22 1 18 C-5.27 18 -11.54 18 -18 18 C-19.04976964 14.85069107 -19.10131595 12.61185544 -19.0625 9.3125 C-19.05347656 8.31863281 -19.04445313 7.32476562 -19.03515625 6.30078125 C-19.02355469 5.54152344 -19.01195313 4.78226562 -19 4 C-18.34 3.67 -17.68 3.34 -17 3 C-16.80543295 4.95764383 -16.61955753 6.91615321 -16.4375 8.875 C-16.33308594 9.96554687 -16.22867188 11.05609375 -16.12109375 12.1796875 C-16 15 -16 15 -17 17 C-11.39 17 -5.78 17 0 17 C0 11.39 0 5.78 0 0 Z " fill="#858584" transform="translate(138,335)"/>
<path d="M0 0 C0.33 1.32 0.66 2.64 1 4 C28.06 4 55.12 4 83 4 C83 4.33 83 4.66 83 5 C55.94 5 28.88 5 1 5 C0.67 5.66 0.34 6.32 0 7 C-1.04449911 3.86650268 -0.93423645 3.01031744 0 0 Z " fill="#DCDBD9" transform="translate(206,96)"/>
<path d="M0 0 C5.94 0 11.88 0 18 0 C18 0.33 18 0.66 18 1 C13.05 1.33 8.1 1.66 3 2 C2.67 11.24 2.34 20.48 2 30 C1.34 30 0.68 30 0 30 C0 20.1 0 10.2 0 0 Z " fill="#BEBDBC" transform="translate(289,280)"/>
<path d="M0 0 C1.98 0 3.96 0 6 0 C6 7.26 6 14.52 6 22 C5.67 22 5.34 22 5 22 C4.93941406 21.30132812 4.87882812 20.60265625 4.81640625 19.8828125 C4.73261719 18.97273438 4.64882813 18.06265625 4.5625 17.125 C4.48128906 16.22007812 4.40007812 15.31515625 4.31640625 14.3828125 C4.13010715 11.98889139 4.13010715 11.98889139 3 10 C1.68 9.67 0.36 9.34 -1 9 C-0.67 6.03 -0.34 3.06 0 0 Z " fill="#EAEAE9" transform="translate(308,372)"/>
<path d="M0 0 C5.28497409 -0.44041451 5.28497409 -0.44041451 8 0 C10.5 2.5 10.5 2.5 12 5 C10.35 5 8.7 5 7 5 C6.67 6.65 6.34 8.3 6 10 C8.97 10 11.94 10 15 10 C15.33 9.34 15.66 8.68 16 8 C16 8.99 16 9.98 16 11 C12.37 11 8.74 11 5 11 C5 9.68 5 8.36 5 7 C3.35 7 1.7 7 0 7 C0 4.69 0 2.38 0 0 Z " fill="#BEBEBD" transform="translate(123,387)"/>
<path d="M0 0 C0.309375 0.928125 0.309375 0.928125 0.625 1.875 C2.54249243 4.83839739 4.70117732 5.01737197 8 6 C8.33 6.66 8.66 7.32 9 8 C9.33 7.01 9.66 6.02 10 5 C10.33 5.66 10.66 6.32 11 7 C11.99 7.33 12.98 7.66 14 8 C14.6875 10.0625 14.6875 10.0625 15 12 C15.66 12 16.32 12 17 12 C17 14.97 17 17.94 17 21 C16.67 21 16.34 21 16 21 C16 18.36 16 15.72 16 13 C15.01 13 14.02 13 13 13 C13 11.68 13 10.36 13 9 C11.741875 9 10.48375 9 9.1875 9 C6.79166667 9 4.39583333 9 2 9 C1.01 9.495 1.01 9.495 0 10 C0 9.01 0 8.02 0 7 C-0.99 7.33 -1.98 7.66 -3 8 C-2.67 6.02 -2.34 4.04 -2 2 C-1.34 2 -0.68 2 0 2 C0 1.34 0 0.68 0 0 Z " fill="#9B9B9A" transform="translate(358,373)"/>
<path d="M0 0 C2.64 0 5.28 0 8 0 C8 2.64 8 5.28 8 8 C7.67 8 7.34 8 7 8 C7 5.69 7 3.38 7 1 C6.81824219 1.56589844 6.63648438 2.13179688 6.44921875 2.71484375 C6.19785156 3.44832031 5.94648438 4.18179687 5.6875 4.9375 C5.44386719 5.66839844 5.20023437 6.39929688 4.94921875 7.15234375 C4 9 4 9 1 10 C1 13.63 1 17.26 1 21 C0.67 21 0.34 21 0 21 C0 14.07 0 7.14 0 0 Z " fill="#B7B5B6" transform="translate(293,371)"/>
<path d="M0 0 C1.21236328 0.02707031 1.21236328 0.02707031 2.44921875 0.0546875 C3.37154297 0.08949219 3.37154297 0.08949219 4.3125 0.125 C4.3125 1.445 4.3125 2.765 4.3125 4.125 C2.6625 4.125 1.0125 4.125 -0.6875 4.125 C-0.6875 3.135 -0.6875 2.145 -0.6875 1.125 C-1.3475 1.125 -2.0075 1.125 -2.6875 1.125 C-2.501875 2.07375 -2.31625 3.0225 -2.125 4 C-1.6875 7.125 -1.6875 7.125 -2.6875 9.125 C0.6125 9.125 3.9125 9.125 7.3125 9.125 C7.6425 8.465 7.9725 7.805 8.3125 7.125 C8.3125 8.115 8.3125 9.105 8.3125 10.125 C6.37568839 10.20607583 4.4379066 10.26422475 2.5 10.3125 C1.42105469 10.34730469 0.34210938 10.38210938 -0.76953125 10.41796875 C-3.6875 10.125 -3.6875 10.125 -5.53125 8.78125 C-7.02927261 6.63543382 -7.34035529 4.69387084 -7.6875 2.125 C-4.48369983 -0.01086678 -3.66810033 -0.10632175 0 0 Z " fill="#C4C4C4" transform="translate(362.6875,387.875)"/>
<path d="M0 0 C2.64 0 5.28 0 8 0 C8.19583915 4.14548415 8.38027842 8.2913967 8.5625 12.4375 C8.61857422 13.62150391 8.67464844 14.80550781 8.73242188 16.02539062 C8.78076172 17.15009766 8.82910156 18.27480469 8.87890625 19.43359375 C8.9260376 20.47572021 8.97316895 21.51784668 9.02172852 22.59155273 C9 25 9 25 8 26 C5.32941149 26.14115161 2.67567762 26.04247107 0 26 C0.495 24.515 0.495 24.515 1 23 C1.66 23 2.32 23 3 23 C3.33 21.68 3.66 20.36 4 19 C4.33 19.66 4.66 20.32 5 21 C5.66 21 6.32 21 7 21 C7 14.4 7 7.8 7 1 C4.69 1 2.38 1 0 1 C0 0.67 0 0.34 0 0 Z " fill="#B0AFAE" transform="translate(101,318)"/>
<path d="M0 0 C0.66 0 1.32 0 2 0 C3.125 7.75 3.125 7.75 2 10 C2.66 10.33 3.32 10.66 4 11 C2.515 13.475 2.515 13.475 1 16 C0.01 15.67 -0.98 15.34 -2 15 C-2.33 16.98 -2.66 18.96 -3 21 C-3.33 21 -3.66 21 -4 21 C-4.08082094 19.04233719 -4.13910778 17.08373272 -4.1875 15.125 C-4.22230469 14.03445313 -4.25710938 12.94390625 -4.29296875 11.8203125 C-4.19628906 10.88960938 -4.09960938 9.95890625 -4 9 C-3.01 8.34 -2.02 7.68 -1 7 C-0.26393501 3.43230448 -0.26393501 3.43230448 0 0 Z " fill="#EFEEEC" transform="translate(298,372)"/>
<path d="M0 0 C0.66 1.32 1.32 2.64 2 4 C2.66 3.34 3.32 2.68 4 2 C6.31 2.66 8.62 3.32 11 4 C10.67 4.639375 10.34 5.27875 10 5.9375 C8.92728775 7.76794567 8.92728775 7.76794567 9 9 C7.6078125 8.9690625 7.6078125 8.9690625 6.1875 8.9375 C2.97713989 8.84230396 2.97713989 8.84230396 0 10 C-1.125 3.375 -1.125 3.375 0 0 Z " fill="#D7D8D6" transform="translate(357,378)"/>
<path d="M0 0 C1.32 0 2.64 0 4 0 C3.91621094 0.59167969 3.83242187 1.18335938 3.74609375 1.79296875 C3.19110576 6.09939457 2.76773348 9.75552644 4 14 C6.31 14 8.62 14 11 14 C11.33 13.34 11.66 12.68 12 12 C12.33 12.99 12.66 13.98 13 15 C9.7 15 6.4 15 3 15 C3 13.68 3 12.36 3 11 C2.01 11 1.02 11 0 11 C0.020625 9.88625 0.04125 8.7725 0.0625 7.625 C0.26380718 4.16784079 0.26380718 4.16784079 -1 2 C-0.67 1.34 -0.34 0.68 0 0 Z " fill="#CBCBC9" transform="translate(237,383)"/>
<path d="M0 0 C3.19902639 -0.08886184 5.92677456 0.08941469 9 1 C9 1.99 9 2.98 9 4 C9.66 4 10.32 4 11 4 C11 3.01 11 2.02 11 1 C11.66 1.33 12.32 1.66 13 2 C12.67 2.99 12.34 3.98 12 5 C7.38 5 2.76 5 -2 5 C-1.34 4.34 -0.68 3.68 0 3 C0 2.01 0 1.02 0 0 Z " fill="#C6C6C4" transform="translate(155,393)"/>
<path d="M0 0 C0.33 0 0.66 0 1 0 C1 9.9 1 19.8 1 30 C0.67 30 0.34 30 0 30 C-0.33 24.06 -0.66 18.12 -1 12 C-2.32 11.34 -3.64 10.68 -5 10 C-4.67 8.35 -4.34 6.7 -4 5 C-3.01 5.33 -2.02 5.66 -1 6 C-0.67 4.02 -0.34 2.04 0 0 Z " fill="#727170" transform="translate(261,204)"/>
<path d="M0 0 C1.98 0 3.96 0 6 0 C6.66 1.32 7.32 2.64 8 4 C7.67 4.33 7.34 4.66 7 5 C6.63239269 7.32817964 6.29758419 9.6618385 6 12 C6.66 12.33 7.32 12.66 8 13 C7.67 13.66 7.34 14.32 7 15 C6.34 15 5.68 15 5 15 C5 12.03 5 9.06 5 6 C2.36 6 -0.28 6 -3 6 C-2.67 5.34 -2.34 4.68 -2 4 C-0.35 4 1.3 4 3 4 C3.33 3.01 3.66 2.02 4 1 C2.68 0.67 1.36 0.34 0 0 Z " fill="#F0F1EE" transform="translate(303,382)"/>
<path d="M0 0 C2.33294775 -0.04241723 4.66702567 -0.04092937 7 0 C8 1 8 1 8.09765625 2.84765625 C8.04882812 5.92382812 8.04882812 5.92382812 8 9 C7.67 9 7.34 9 7 9 C7 7.02 7 5.04 7 3 C6.67 3.66 6.34 4.32 6 5 C5.34 5 4.68 5 4 5 C4 5.66 4 6.32 4 7 C3.01 7 2.02 7 1 7 C0.67 4.69 0.34 2.38 0 0 Z " fill="#BEBEBC" transform="translate(329,371)"/>
<path d="M0 0 C0.33 0 0.66 0 1 0 C1 5.94 1 11.88 1 18 C0.01 18 -0.98 18 -2 18 C-2 18.99 -2 19.98 -2 21 C-2.66 21 -3.32 21 -4 21 C-3.67 18.69 -3.34 16.38 -3 14 C-2.34 14 -1.68 14 -1 14 C-1.33 12.35 -1.66 10.7 -2 9 C-1.34 9 -0.68 9 0 9 C-0.185625 8.071875 -0.37125 7.14375 -0.5625 6.1875 C-1 3 -1 3 0 0 Z " fill="#F3F3F2" transform="translate(168,376)"/>
<path d="M0 0 C1.65 0 3.3 0 5 0 C5.6875 1.75 5.6875 1.75 6 4 C4.625 6.25 4.625 6.25 3 8 C2.67 8 2.34 8 2 8 C1.67 10.97 1.34 13.94 1 17 C0.67 17 0.34 17 0 17 C-0.19493195 14.72979256 -0.38070418 12.45879711 -0.5625 10.1875 C-0.66691406 8.92292969 -0.77132812 7.65835938 -0.87890625 6.35546875 C-1 3 -1 3 0 0 Z " fill="#EFEEEC" transform="translate(242,150)"/>
<path d="M0 0 C0 1.32 0 2.64 0 4 C0.99 4 1.98 4 3 4 C2.67 5.32 2.34 6.64 2 8 C1.54625 7.525625 1.0925 7.05125 0.625 6.5625 C-0.93258204 4.90972192 -0.93258204 4.90972192 -3 4 C-3 4.66 -3 5.32 -3 6 C-6.3 6 -9.6 6 -13 6 C-12.34 5.67 -11.68 5.34 -11 5 C-10.67 4.34 -10.34 3.68 -10 3 C-10 3.66 -10 4.32 -10 5 C-8.01508358 4.73323796 -8.01508358 4.73323796 -6 4 C-5.67 3.01 -5.34 2.02 -5 1 C-3 0 -3 0 0 0 Z " fill="#F2F2F2" transform="translate(371,382)"/>
<path d="M0 0 C0.99 1.485 0.99 1.485 2 3 C1.67 3.66 1.34 4.32 1 5 C1.66 5 2.32 5 3 5 C3 5.66 3 6.32 3 7 C10.59 7 18.18 7 26 7 C25.67 8.32 25.34 9.64 25 11 C25 10.01 25 9.02 25 8 C16.75 8 8.5 8 0 8 C0 5.36 0 2.72 0 0 Z " fill="#9F9E9B" transform="translate(403,316)"/>
<path d="M0 0 C1.98 0 3.96 0 6 0 C6 1.65 6 3.3 6 5 C5.34 5 4.68 5 4 5 C3.67 6.32 3.34 7.64 3 9 C2.01 8.34 1.02 7.68 0 7 C-0.1875 3.375 -0.1875 3.375 0 0 Z " fill="#E2E1DF" transform="translate(202,372)"/>
<path d="M0 0 C2.97 0 5.94 0 9 0 C8.67 1.32 8.34 2.64 8 4 C5.03 4 2.06 4 -1 4 C-0.67 2.68 -0.34 1.36 0 0 Z " fill="#EAEAE8" transform="translate(130,393)"/>
<path d="M0 0 C2.97 0 5.94 0 9 0 C7.68 0.33 6.36 0.66 5 1 C4.87625 1.639375 4.7525 2.27875 4.625 2.9375 C4.41875 3.618125 4.2125 4.29875 4 5 C3.01 5.495 3.01 5.495 2 6 C1.34444881 8.52733235 1.34444881 8.52733235 1 11 C0.67 11 0.34 11 0 11 C0 7.37 0 3.74 0 0 Z " fill="#EEEEED" transform="translate(395,331)"/>
<path d="M0 0 C2.31 0.33 4.62 0.66 7 1 C7 2.98 7 4.96 7 7 C4.69 7 2.38 7 0 7 C-0.33 6.34 -0.66 5.68 -1 5 C-0.34 5 0.32 5 1 5 C0.67 3.35 0.34 1.7 0 0 Z " fill="#CDCDCB" transform="translate(300,380)"/>
<path d="M0 0 C2.64 0 5.28 0 8 0 C8 2.64 8 5.28 8 8 C7.67 8 7.34 8 7 8 C7 5.69 7 3.38 7 1 C6.34 3.31 5.68 5.62 5 8 C4.34 7.34 3.68 6.68 3 6 C3 5.01 3 4.02 3 3 C2.01 2.67 1.02 2.34 0 2 C0 1.34 0 0.68 0 0 Z M2 8 C2.99 8.495 2.99 8.495 4 9 C3.01 9.495 3.01 9.495 2 10 C2 9.34 2 8.68 2 8 Z " fill="#969595" transform="translate(293,371)"/>
<path d="M0 0 C0.33 0 0.66 0 1 0 C1.33 1.98 1.66 3.96 2 6 C4.31 6.33 6.62 6.66 9 7 C5.77208445 9.1519437 4.71599191 9.20086443 1 9 C1.33 9.99 1.66 10.98 2 12 C1.01 12 0.02 12 -1 12 C-1.2226746 10.56465159 -1.42761906 9.12654475 -1.625 7.6875 C-1.74101562 6.88699219 -1.85703125 6.08648437 -1.9765625 5.26171875 C-2 3 -2 3 0 0 Z " fill="#EFEFED" transform="translate(154,385)"/>
<path d="M0 0 C0.66 0.99 1.32 1.98 2 3 C2.99 3.33 3.98 3.66 5 4 C5 5.98 5 7.96 5 10 C3.02 10 1.04 10 -1 10 C0 7 0 7 1 6 C0.67 5.67 0.34 5.34 0 5 C-0.04063832 3.33382885 -0.042721 1.66611905 0 0 Z " fill="#C3C3C1" transform="translate(370,371)"/>
<path d="M0 0 C1.4540625 0.0309375 1.4540625 0.0309375 2.9375 0.0625 C2.6075 1.3825 2.2775 2.7025 1.9375 4.0625 C0.6175 3.4025 -0.7025 2.7425 -2.0625 2.0625 C-2.0625 6.6825 -2.0625 11.3025 -2.0625 16.0625 C-2.3925 16.0625 -2.7225 16.0625 -3.0625 16.0625 C-3.25639096 13.5836787 -3.44290123 11.10469069 -3.625 8.625 C-3.68107422 7.91794922 -3.73714844 7.21089844 -3.79492188 6.48242188 C-3.92440993 4.67822163 -3.99771608 2.87018048 -4.0625 1.0625 C-3.0625 0.0625 -3.0625 0.0625 0 0 Z " fill="#F2F2F0" transform="translate(139.0625,371.9375)"/>
<path d="M0 0 C1.66611905 -0.042721 3.33382885 -0.04063832 5 0 C6 1 6 1 6.0625 4.5625 C6.041875 5.696875 6.02125 6.83125 6 8 C5.34 8 4.68 8 4 8 C3.67 6.35 3.34 4.7 3 3 C2.01 2.67 1.02 2.34 0 2 C0 1.34 0 0.68 0 0 Z " fill="#B8BAB9" transform="translate(329,335)"/>
<path d="M0 0 C0.99 0 1.98 0 3 0 C3 0.66 3 1.32 3 2 C5.31 2 7.62 2 10 2 C10 2.33 10 2.66 10 3 C2.08 3.495 2.08 3.495 -6 4 C-6 3.34 -6 2.68 -6 2 C-4.02 2 -2.04 2 0 2 C0 1.34 0 0.68 0 0 Z " fill="#AFAEAC" transform="translate(420,293)"/>
<path d="M0 0 C0.66 0 1.32 0 2 0 C3.33257403 12.66970387 3.33257403 12.66970387 2 18 C1.67 18 1.34 18 1 18 C0.67 12.06 0.34 6.12 0 0 Z " fill="#F7F6F5" transform="translate(334,374)"/>
<path d="M0 0 C3.3 0 6.6 0 10 0 C7.51841546 2.48158454 5.33790321 3.0264449 2 4 C1.34 4 0.68 4 0 4 C0 2.68 0 1.36 0 0 Z " fill="#EEEEEE" transform="translate(153,372)"/>
<path d="M0 0 C0.33 0 0.66 0 1 0 C1.33 1.98 1.66 3.96 2 6 C1.01 6 0.02 6 -1 6 C-1 6.99 -1 7.98 -1 9 C-1.66 9 -2.32 9 -3 9 C-2.67 6.69 -2.34 4.38 -2 2 C-1.34 2 -0.68 2 0 2 C0 1.34 0 0.68 0 0 Z " fill="#EDEDEB" transform="translate(167,388)"/>
<path d="M0 0 C0.99 0.33 1.98 0.66 3 1 C2.67 1.99 2.34 2.98 2 4 C1.77674186 6.05893621 1.59294241 8.12233653 1.4375 10.1875 C1.35371094 11.27417969 1.26992187 12.36085938 1.18359375 13.48046875 C1.12300781 14.31191406 1.06242188 15.14335937 1 16 C0.67 16 0.34 16 0 16 C0 10.72 0 5.44 0 0 Z " fill="#DDDDDC" transform="translate(149,376)"/>
<path d="M0 0 C0.66 0.33 1.32 0.66 2 1 C2 4.3 2 7.6 2 11 C1.67 11 1.34 11 1 11 C0.67 8.69 0.34 6.38 0 4 C-0.99 4 -1.98 4 -3 4 C-3.33 4.66 -3.66 5.32 -4 6 C-3.67 4.68 -3.34 3.36 -3 2 C-2.01 2 -1.02 2 0 2 C0 1.34 0 0.68 0 0 Z " fill="#AFAFAD" transform="translate(216,178)"/>
<path d="M0 0 C0.66 0.66 1.32 1.32 2 2 C0.63875 2.4021875 0.63875 2.4021875 -0.75 2.8125 C-3.71471963 3.89576294 -5.6169754 4.98359457 -8 7 C-8 5.35 -8 3.7 -8 2 C-6.71254964 1.61077082 -5.41980403 1.23901964 -4.125 0.875 C-3.04605469 0.56175781 -3.04605469 0.56175781 -1.9453125 0.2421875 C-1.30335938 0.16226563 -0.66140625 0.08234375 0 0 Z " fill="#F0F0EE" transform="translate(214,178)"/>
<path d="M0 0 C2.64 0 5.28 0 8 0 C8 1.32 8 2.64 8 4 C6.35 4 4.7 4 3 4 C3 3.01 3 2.02 3 1 C2.01 0.67 1.02 0.34 0 0 Z " fill="#505050" transform="translate(359,388)"/>
<path d="M0 0 C0.33 0 0.66 0 1 0 C1.33 1.65 1.66 3.3 2 5 C4.97 5.495 4.97 5.495 8 6 C8 6.33 8 6.66 8 7 C5.36 7.33 2.72 7.66 0 8 C-1.09658936 4.71023192 -0.79953138 3.28696233 0 0 Z " fill="#BEBDBC" transform="translate(206,172)"/>
<path d="M0 0 C1.98 0 3.96 0 6 0 C5.67 1.32 5.34 2.64 5 4 C3 3 3 3 2 2 C1.34 3.32 0.68 4.64 0 6 C0 4.02 0 2.04 0 0 Z " fill="#F0F0EF" transform="translate(202,372)"/>
<path d="M0 0 C1.98 0.495 1.98 0.495 4 1 C3.01 1 2.02 1 1 1 C1.33 4.63 1.66 8.26 2 12 C1.01 12 0.02 12 -1 12 C-0.67 8.04 -0.34 4.08 0 0 Z " fill="#8C8B8B" transform="translate(73,296)"/>
<path d="M0 0 C0.33 1.32 0.66 2.64 1 4 C4.3 4 7.6 4 11 4 C11 4.33 11 4.66 11 5 C7.7 5 4.4 5 1 5 C0.67 5.66 0.34 6.32 0 7 C-1.04449911 3.86650268 -0.93423645 3.01031744 0 0 Z " fill="#C4C4C3" transform="translate(206,96)"/>
<path d="M0 0 C0.99 0 1.98 0 3 0 C3 1.32 3 2.64 3 4 C1.02 4 -0.96 4 -3 4 C-2.34 3.67 -1.68 3.34 -1 3 C-0.67 2.01 -0.34 1.02 0 0 Z " fill="#DCDCDA" transform="translate(311,394)"/>
<path d="M0 0 C0.66 0.66 1.32 1.32 2 2 C1.96712417 4.72869407 1.43602229 7.2966618 1 10 C0.34 9.67 -0.32 9.34 -1 9 C-1.09765625 2.84765625 -1.09765625 2.84765625 -1 1 C-0.67 0.67 -0.34 0.34 0 0 Z " fill="#AFAFAD" transform="translate(290,325)"/>
<path d="M0 0 C0.99 0 1.98 0 3 0 C3.33 1.32 3.66 2.64 4 4 C2.02 4 0.04 4 -2 4 C-1.34 2.68 -0.68 1.36 0 0 Z " fill="#EAEAE8" transform="translate(442,298)"/>
<path d="M0 0 C0.99 1.32 1.98 2.64 3 4 C1.68 4 0.36 4 -1 4 C-1.33 4.66 -1.66 5.32 -2 6 C-2.33 4.68 -2.66 3.36 -3 2 C-2.01 1.34 -1.02 0.68 0 0 Z M2 1 C4 2 4 2 4 2 Z " fill="#EFEFED" transform="translate(187,242)"/>
<path d="" fill="#8E8E8E" transform="translate(0,0)"/>
</svg>
